<svg width="160" height="19" viewBox="0 0 160 19" fill="none" xmlns="http://www.w3.org/2000/svg">
<rect width="160" height="19" fill="#FE682F"/>
<path d="M25.45 13H32.05C34.16 13 35.22 12.33 35.22 10.98V10.85C35.22 10.56 35.16 10.3 35.04 10.08C34.93 9.85 34.77 9.67 34.58 9.54C34.39 9.42 34.22 9.32 34.06 9.25C33.9 9.18 33.74 9.12 33.57 9.09C33.69 9.06 33.81 9.01 33.92 8.95C34.04 8.9 34.17 8.82 34.31 8.71C34.46 8.61 34.57 8.47 34.66 8.3C34.74 8.13 34.79 7.93 34.79 7.72V7.59C34.79 7.12 34.58 6.73 34.15 6.43C33.73 6.13 33.01 5.99 31.99 5.99H25.45V13ZM27.84 7.47H31.58C32.14 7.47 32.41 7.65 32.41 8.02V8.04C32.41 8.42 32.14 8.61 31.58 8.61H27.84V7.47ZM31.79 10.1C32.42 10.1 32.73 10.31 32.73 10.75V10.78C32.73 10.97 32.66 11.13 32.53 11.26C32.39 11.4 32.14 11.47 31.79 11.47H27.84V10.1H31.79ZM48.7771 10.09C48.5371 9.82 48.2171 9.64 47.8271 9.53C48.6771 9.25 49.1071 8.75 49.1071 8.02V7.91C49.1071 6.72 48.1071 6.12 46.1071 6.12H40.5371V13H42.6971V10.56H45.5171C46.0471 10.56 46.4171 10.66 46.6371 10.85C46.8571 11.04 46.9671 11.35 46.9671 11.77V13H49.1371V11.11C49.1371 10.69 49.0171 10.35 48.7771 10.09ZM46.8471 8.36C46.8471 8.56 46.7771 8.73 46.6371 8.85C46.4971 8.97 46.2771 9.04 45.9771 9.04H42.6971V7.68H45.9771C46.2771 7.68 46.4971 7.75 46.6371 7.87C46.7771 7.99 46.8471 8.15 46.8471 8.35V8.36ZM61.2451 6.08H57.6951L53.9851 12.99H56.3251L56.9751 11.73H61.9651L62.6151 12.99H64.9651L61.2451 6.08ZM57.7851 10.17L59.0951 7.63H59.8451L61.1651 10.17H57.7851ZM69.9523 6.01V13.01H72.3023V8.37L77.4823 13.01H79.8423V6.01H77.4823V10.41L72.6123 6.01H69.9523ZM85.4559 5.99V13H90.5259C91.3859 13 92.1459 12.93 92.7959 12.78C93.4559 12.64 93.9759 12.46 94.3659 12.24C94.7459 12.02 95.0559 11.75 95.3059 11.43C95.5459 11.12 95.7059 10.82 95.7859 10.52C95.8759 10.23 95.9159 9.92 95.9159 9.59V9.3C95.9159 9.02 95.8859 8.76 95.8159 8.51C95.7559 8.26 95.6459 8.01 95.5059 7.75C95.3559 7.49 95.1459 7.26 94.8759 7.06C94.6059 6.85 94.2759 6.67 93.8859 6.5C93.5059 6.33 93.0259 6.21 92.4459 6.12C91.8759 6.03 91.2259 5.99 90.5159 5.99H85.4559ZM87.8459 7.64H90.3359C92.3859 7.64 93.4059 8.24 93.4059 9.45V9.5C93.4059 10.71 92.3859 11.31 90.3359 11.31H87.8459V7.64ZM103.583 6.02H101.203V13H103.583V6.02ZM109.188 6.01V13.01H111.538V8.37L116.718 13.01H119.078V6.01H116.718V10.41L111.848 6.01H109.188ZM129.661 13.12C131.341 13.12 132.561 12.72 133.331 11.91C133.341 12.37 133.351 13 133.351 13H135.071V9.09H129.701V10.41H132.691V10.43C132.691 10.47 132.661 10.53 132.611 10.61C132.551 10.68 132.441 10.77 132.301 10.86C132.151 10.96 131.971 11.05 131.761 11.13C131.551 11.21 131.271 11.28 130.911 11.34C130.561 11.39 130.171 11.42 129.751 11.42C128.781 11.42 128.061 11.24 127.581 10.87C127.111 10.5 126.871 10.06 126.871 9.55V9.44C126.871 8.19 127.841 7.56 129.771 7.56C131.321 7.56 132.221 7.89 132.481 8.55H135.011V8.54C135.011 8.32 134.971 8.11 134.891 7.9C134.821 7.69 134.671 7.46 134.441 7.2C134.221 6.95 133.931 6.73 133.581 6.55C133.231 6.36 132.741 6.21 132.121 6.08C131.501 5.96 130.781 5.9 129.971 5.9H129.531C128.691 5.9 127.951 5.97 127.321 6.13C126.681 6.29 126.181 6.48 125.821 6.72C125.461 6.95 125.161 7.23 124.931 7.55C124.701 7.87 124.551 8.18 124.481 8.46C124.411 8.75 124.381 9.04 124.381 9.35V9.61C124.381 9.92 124.421 10.22 124.501 10.52C124.591 10.81 124.751 11.12 124.981 11.45C125.211 11.77 125.511 12.05 125.871 12.29C126.241 12.53 126.731 12.73 127.341 12.89C127.961 13.04 128.661 13.12 129.451 13.12H129.661Z" fill="white"/>
</svg>
