<svg width="118" height="35" viewBox="0 0 118 35" fill="none" xmlns="http://www.w3.org/2000/svg">
<path d="M13.294 14.914C13.294 15.7727 13.087 16.5777 12.673 17.329C12.2743 18.0803 11.638 18.686 10.764 19.146C9.90533 19.606 8.81667 19.836 7.498 19.836H4.807V26H1.587V9.946H7.498C8.74 9.946 9.798 10.1607 10.672 10.59C11.546 11.0193 12.1977 11.6097 12.627 12.361C13.0717 13.1123 13.294 13.9633 13.294 14.914ZM7.36 17.237C8.24933 17.237 8.90867 17.0377 9.338 16.639C9.76733 16.225 9.982 15.65 9.982 14.914C9.982 13.35 9.108 12.568 7.36 12.568H4.807V17.237H7.36ZM18.8002 15.236C19.2142 14.5613 19.7508 14.0323 20.4102 13.649C21.0848 13.2657 21.8515 13.074 22.7102 13.074V16.455H21.8592C20.8472 16.455 20.0805 16.6927 19.5592 17.168C19.0532 17.6433 18.8002 18.4713 18.8002 19.652V26H15.5802V13.258H18.8002V15.236ZM30.537 26.207C29.3103 26.207 28.2063 25.9387 27.225 25.402C26.2437 24.85 25.4693 24.0757 24.902 23.079C24.35 22.0823 24.074 20.9323 24.074 19.629C24.074 18.3257 24.3577 17.1757 24.925 16.179C25.5077 15.1823 26.2973 14.4157 27.294 13.879C28.2907 13.327 29.4023 13.051 30.629 13.051C31.8557 13.051 32.9673 13.327 33.964 13.879C34.9607 14.4157 35.7427 15.1823 36.31 16.179C36.8927 17.1757 37.184 18.3257 37.184 19.629C37.184 20.9323 36.885 22.0823 36.287 23.079C35.7043 24.0757 34.907 24.85 33.895 25.402C32.8983 25.9387 31.779 26.207 30.537 26.207ZM30.537 23.401C31.1197 23.401 31.664 23.263 32.17 22.987C32.6913 22.6957 33.1053 22.2663 33.412 21.699C33.7187 21.1317 33.872 20.4417 33.872 19.629C33.872 18.4177 33.55 17.49 32.906 16.846C32.2773 16.1867 31.503 15.857 30.583 15.857C29.663 15.857 28.8887 16.1867 28.26 16.846C27.6467 17.49 27.34 18.4177 27.34 19.629C27.34 20.8403 27.639 21.7757 28.237 22.435C28.8503 23.079 29.617 23.401 30.537 23.401ZM41.179 11.74C40.5963 11.74 40.1133 11.5637 39.73 11.211C39.362 10.843 39.178 10.3907 39.178 9.854C39.178 9.31733 39.362 8.87267 39.73 8.52C40.1133 8.152 40.5963 7.968 41.179 7.968C41.7463 7.968 42.214 8.152 42.582 8.52C42.95 8.87267 43.134 9.31733 43.134 9.854C43.134 10.3907 42.95 10.843 42.582 11.211C42.214 11.5637 41.7463 11.74 41.179 11.74ZM42.766 28.093C42.766 29.5037 42.4133 30.5157 41.708 31.129C41.018 31.7577 40.0213 32.072 38.718 32.072H37.292V29.335H38.212C38.7027 29.335 39.0477 29.2353 39.247 29.036C39.4463 28.852 39.546 28.5453 39.546 28.116V13.258H42.766V28.093ZM57.7924 19.353C57.7924 19.813 57.7617 20.227 57.7004 20.595H48.3854C48.462 21.515 48.784 22.2357 49.3514 22.757C49.9187 23.2783 50.6164 23.539 51.4444 23.539C52.6404 23.539 53.4914 23.0253 53.9974 21.998H57.4704C57.1024 23.2247 56.397 24.2367 55.3544 25.034C54.3117 25.816 53.0314 26.207 51.5134 26.207C50.2867 26.207 49.1827 25.9387 48.2014 25.402C47.2354 24.85 46.4764 24.0757 45.9244 23.079C45.3877 22.0823 45.1194 20.9323 45.1194 19.629C45.1194 18.3103 45.3877 17.1527 45.9244 16.156C46.461 15.1593 47.2124 14.3927 48.1784 13.856C49.1444 13.3193 50.256 13.051 51.5134 13.051C52.7247 13.051 53.8057 13.3117 54.7564 13.833C55.7224 14.3543 56.466 15.098 56.9874 16.064C57.524 17.0147 57.7924 18.111 57.7924 19.353ZM54.4574 18.433C54.442 17.605 54.143 16.9457 53.5604 16.455C52.9777 15.949 52.2647 15.696 51.4214 15.696C50.624 15.696 49.9494 15.9413 49.3974 16.432C48.8607 16.9073 48.531 17.5743 48.4084 18.433H54.4574ZM59.3147 19.629C59.3147 18.3103 59.583 17.1603 60.1197 16.179C60.6563 15.1823 61.4 14.4157 62.3507 13.879C63.3013 13.327 64.39 13.051 65.6167 13.051C67.196 13.051 68.4993 13.4497 69.5267 14.247C70.5693 15.029 71.267 16.133 71.6197 17.559H68.1467C67.9627 17.007 67.6483 16.5777 67.2037 16.271C66.7743 15.949 66.2377 15.788 65.5937 15.788C64.6737 15.788 63.9453 16.1253 63.4087 16.8C62.872 17.4593 62.6037 18.4023 62.6037 19.629C62.6037 20.8403 62.872 21.7833 63.4087 22.458C63.9453 23.1173 64.6737 23.447 65.5937 23.447C66.897 23.447 67.748 22.8643 68.1467 21.699H71.6197C71.267 23.079 70.5693 24.1753 69.5267 24.988C68.484 25.8007 67.1807 26.207 65.6167 26.207C64.39 26.207 63.3013 25.9387 62.3507 25.402C61.4 24.85 60.6563 24.0833 60.1197 23.102C59.583 22.1053 59.3147 20.9477 59.3147 19.629ZM77.7276 15.903V22.067C77.7276 22.4963 77.8273 22.8107 78.0266 23.01C78.2413 23.194 78.5939 23.286 79.0846 23.286H80.5796V26H78.5556C75.8416 26 74.4846 24.6813 74.4846 22.044V15.903H72.9666V13.258H74.4846V10.107H77.7276V13.258H80.5796V15.903H77.7276ZM87.7716 26.207C86.7289 26.207 85.7936 26.023 84.9656 25.655C84.1376 25.2717 83.4783 24.758 82.9876 24.114C82.5123 23.47 82.2516 22.757 82.2056 21.975H85.4486C85.5099 22.4657 85.7476 22.872 86.1616 23.194C86.5909 23.516 87.1199 23.677 87.7486 23.677C88.3619 23.677 88.8373 23.5543 89.1746 23.309C89.5273 23.0637 89.7036 22.7493 89.7036 22.366C89.7036 21.952 89.4889 21.6453 89.0596 21.446C88.6456 21.2313 87.9786 21.0013 87.0586 20.756C86.1079 20.526 85.3259 20.2883 84.7126 20.043C84.1146 19.7977 83.5933 19.422 83.1486 18.916C82.7193 18.41 82.5046 17.7277 82.5046 16.869C82.5046 16.1637 82.7039 15.5197 83.1026 14.937C83.5166 14.3543 84.0993 13.8943 84.8506 13.557C85.6173 13.2197 86.5143 13.051 87.5416 13.051C89.0596 13.051 90.2709 13.4343 91.1756 14.201C92.0803 14.9523 92.5786 15.972 92.6706 17.26H89.5886C89.5426 16.754 89.3279 16.3553 88.9446 16.064C88.5766 15.7573 88.0783 15.604 87.4496 15.604C86.8669 15.604 86.4146 15.7113 86.0926 15.926C85.7859 16.1407 85.6326 16.4397 85.6326 16.823C85.6326 17.2523 85.8473 17.582 86.2766 17.812C86.7059 18.0267 87.3729 18.249 88.2776 18.479C89.1976 18.709 89.9566 18.9467 90.5546 19.192C91.1526 19.4373 91.6663 19.8207 92.0956 20.342C92.5403 20.848 92.7703 21.5227 92.7856 22.366C92.7856 23.102 92.5786 23.7613 92.1646 24.344C91.7659 24.9267 91.1833 25.3867 90.4166 25.724C89.6653 26.046 88.7836 26.207 87.7716 26.207Z" fill="#262626"/>
<path d="M107 12H117V22M117 12L105 24L117 12Z" stroke="#262626" stroke-width="2" stroke-linecap="round" stroke-linejoin="round"/>
</svg>
